<?xml version="1.0" encoding="UTF-8" standalone="no"?>
<!DOCTYPE svg PUBLIC "-//W3C//DTD SVG 1.1//EN" "http://www.w3.org/Graphics/SVG/1.1/DTD/svg11.dtd">
<svg xmlns="http://www.w3.org/2000/svg" version="1.1" viewBox="0.00 0.00 500.00 500.00">
<rect fill="#ffdacd" x="-7.78" y="-2.91" transform="translate(229.75,92.26) rotate(-17.2)" width="15.56" height="5.82" rx="2.80"/>
<rect fill="#ffdacd" x="-7.51" y="-2.93" transform="translate(268.55,92.27) rotate(18.9)" width="15.02" height="5.86" rx="2.65"/>
<rect fill="#ffdacd" x="-6.33" y="-3.24" transform="translate(286.58,99.98) rotate(29.5)" width="12.66" height="6.48" rx="3.09"/>
<rect fill="#ffdacd" x="-6.32" y="-3.27" transform="translate(211.86,99.93) rotate(-30.0)" width="12.64" height="6.54" rx="3.11"/>
<ellipse fill="#ffdacd" cx="0.00" cy="0.00" transform="translate(183.84,101.71) rotate(81.6)" rx="4.86" ry="4.63"/>
<ellipse fill="#ffdacd" cx="0.00" cy="0.00" transform="translate(314.64,101.64) rotate(87.4)" rx="4.81" ry="4.62"/>
<path fill="#ffdacd" d="
  M 246.33 189.20
  L 246.32 218.47
  Q 246.32 219.01 245.78 219.01
  L 239.38 218.96
  Q 238.80 218.95 238.80 218.38
  L 238.62 189.32
  Q 238.62 188.77 238.07 188.77
  L 232.89 188.77
  A 0.60 0.59 -0.0 0 0 232.29 189.36
  L 232.18 218.23
  A 0.75 0.74 -0.4 0 1 231.44 218.97
  Q 222.82 218.98 213.99 219.01
  C 211.94 219.02 211.04 217.63 209.76 216.24
  Q 202.70 208.48 196.10 200.42
  A 1.28 1.26 -19.3 0 0 195.11 199.95
  L 131.28 199.93
  Q 130.73 199.93 130.49 199.44
  C 126.83 192.00 117.23 190.42 113.09 198.48
  C 107.44 209.46 123.11 218.55 130.27 207.20
  Q 130.60 206.69 131.20 206.69
  L 192.36 206.71
  A 1.14 1.12 69.6 0 1 193.22 207.11
  L 202.66 218.31
  Q 203.11 218.85 202.41 218.85
  Q 156.11 218.88 109.85 218.98
  C 106.48 218.99 105.47 217.47 104.61 214.54
  Q 100.46 200.49 107.37 187.65
  C 114.33 174.71 127.93 165.44 142.92 166.10
  A 1.59 1.58 -76.7 0 0 144.44 165.16
  Q 148.94 155.02 156.95 147.17
  C 165.37 138.91 179.86 133.38 191.53 138.81
  A 2.81 2.81 0.0 0 0 195.37 137.18
  C 197.11 132.15 199.29 127.80 202.68 123.49
  Q 207.39 117.49 210.02 115.77
  C 214.09 113.10 218.20 109.63 222.05 107.55
  C 239.61 98.02 261.09 98.64 278.14 108.72
  C 289.55 115.48 298.82 124.92 303.08 137.47
  A 2.39 2.39 0.0 0 0 306.82 138.58
  C 323.41 125.56 347.21 130.26 360.55 145.71
  C 364.10 149.82 366.62 155.28 369.09 160.44
  Q 370.88 164.20 366.85 163.17
  C 364.63 162.60 359.49 162.18 357.11 163.86
  C 355.00 165.34 354.46 168.07 356.73 169.79
  Q 357.16 170.10 357.68 170.08
  Q 368.29 169.54 377.31 174.06
  Q 384.12 177.47 388.69 183.76
  C 395.75 193.47 398.44 207.68 392.45 218.15
  C 391.56 219.70 388.86 218.93 387.83 218.92
  Q 327.41 218.85 267.00 218.95
  Q 266.53 218.95 266.53 218.48
  L 266.56 189.43
  Q 266.56 188.80 265.93 188.80
  L 261.03 188.79
  Q 260.36 188.79 260.36 189.47
  L 260.32 218.30
  Q 260.32 218.92 259.70 218.92
  L 253.29 218.96
  Q 252.62 218.96 252.62 218.29
  L 252.63 189.18
  Q 252.63 188.73 252.18 188.73
  L 246.80 188.73
  Q 246.33 188.73 246.33 189.20
  Z
  M 265.2595 114.9816
  A 0.32 0.32 0.0 0 0 264.9406 114.6605
  L 258.9207 114.6395
  A 0.32 0.32 0.0 0 0 258.5995 114.9584
  L 258.5805 120.4184
  A 0.32 0.32 0.0 0 0 258.8994 120.7395
  L 264.9193 120.7605
  A 0.32 0.32 0.0 0 0 265.2405 120.4416
  L 265.2595 114.9816
  Z
  M 243.9555 115.0743
  A 0.37 0.37 0.0 0 0 243.5848 114.7050
  L 237.8048 114.7150
  A 0.37 0.37 0.0 0 0 237.4355 115.0857
  L 237.4445 120.2857
  A 0.37 0.37 0.0 0 0 237.8152 120.6550
  L 243.5952 120.6450
  A 0.37 0.37 0.0 0 0 243.9645 120.2743
  L 243.9555 115.0743
  Z
  M 218.4687 131.1981
  A 2.64 2.13 92.2 0 0 220.6984 128.6418
  A 2.64 2.13 92.2 0 0 218.6713 125.9219
  A 2.64 2.13 92.2 0 0 216.4416 128.4782
  A 2.64 2.13 92.2 0 0 218.4687 131.1981
  Z
  M 280.2313 131.1300
  A 2.49 2.16 90.2 0 0 282.4000 128.6475
  A 2.49 2.16 90.2 0 0 280.2487 126.1500
  A 2.49 2.16 90.2 0 0 278.0800 128.6325
  A 2.49 2.16 90.2 0 0 280.2313 131.1300
  Z
  M 238.7324 130.7031
  A 0.47 0.47 0.0 0 0 238.2600 130.2355
  L 232.7200 130.2646
  A 0.47 0.47 0.0 0 0 232.2525 130.7370
  L 232.2876 137.4369
  A 0.47 0.47 0.0 0 0 232.7600 137.9045
  L 238.3000 137.8754
  A 0.47 0.47 0.0 0 0 238.7675 137.4030
  L 238.7324 130.7031
  Z
  M 252.6243 130.7545
  A 0.50 0.50 0.0 0 0 252.1234 130.2554
  L 246.8434 130.2646
  A 0.50 0.50 0.0 0 0 246.3443 130.7655
  L 246.3557 137.3455
  A 0.50 0.50 0.0 0 0 246.8566 137.8446
  L 252.1366 137.8354
  A 0.50 0.50 0.0 0 0 252.6357 137.3345
  L 252.6243 130.7545
  Z
  M 266.5783 130.6192
  A 0.47 0.47 0.0 0 0 266.1067 130.1508
  L 260.8267 130.1692
  A 0.47 0.47 0.0 0 0 260.3584 130.6409
  L 260.3817 137.3208
  A 0.47 0.47 0.0 0 0 260.8533 137.7892
  L 266.1333 137.7708
  A 0.47 0.47 0.0 0 0 266.6016 137.2991
  L 266.5783 130.6192
  Z
  M 207.97 139.22
  A 2.48 2.48 0.0 0 0 205.49 136.74
  A 2.48 2.48 0.0 0 0 203.01 139.22
  A 2.48 2.48 0.0 0 0 205.49 141.70
  A 2.48 2.48 0.0 0 0 207.97 139.22
  Z
  M 294.43 139.15
  A 2.47 2.47 0.0 0 0 291.96 136.68
  A 2.47 2.47 0.0 0 0 289.49 139.15
  A 2.47 2.47 0.0 0 0 291.96 141.62
  A 2.47 2.47 0.0 0 0 294.43 139.15
  Z
  M 320.9589 147.4509
  A 2.58 2.24 101.2 0 0 323.6573 145.3551
  A 2.58 2.24 101.2 0 0 321.9611 142.3891
  A 2.58 2.24 101.2 0 0 319.2627 144.4849
  A 2.58 2.24 101.2 0 0 320.9589 147.4509
  Z
  M 265.0897 151.2924
  A 4.49 4.49 0.0 0 0 260.5919 146.8103
  L 237.9719 146.8498
  A 4.49 4.49 0.0 0 0 233.4898 151.3476
  L 233.5303 174.5676
  A 4.49 4.49 0.0 0 0 238.0281 179.0497
  L 260.6481 179.0102
  A 4.49 4.49 0.0 0 0 265.1302 174.5124
  L 265.0897 151.2924
  Z
  M 224.7586 147.7268
  A 0.36 0.36 0.0 0 0 224.3999 147.3656
  L 215.4799 147.3344
  A 0.36 0.36 0.0 0 0 215.1187 147.6932
  L 215.1014 152.6532
  A 0.36 0.36 0.0 0 0 215.4601 153.0144
  L 224.3801 153.0456
  A 0.36 0.36 0.0 0 0 224.7413 152.6868
  L 224.7586 147.7268
  Z
  M 283.97 147.67
  A 0.41 0.41 0.0 0 0 283.56 147.26
  L 274.52 147.26
  A 0.41 0.41 0.0 0 0 274.11 147.67
  L 274.11 152.59
  A 0.41 0.41 0.0 0 0 274.52 153.00
  L 283.56 153.00
  A 0.41 0.41 0.0 0 0 283.97 152.59
  L 283.97 147.67
  Z
  M 326.53 153.95
  Q 309.64 154.17 292.75 154.16
  C 289.02 154.16 288.50 160.18 293.26 160.24
  Q 301.42 160.34 326.50 160.15
  Q 327.00 160.14 327.20 160.60
  C 329.33 165.69 334.81 168.45 339.90 166.16
  C 347.15 162.90 347.22 151.34 339.25 148.57
  Q 331.92 146.03 327.28 153.52
  Q 327.02 153.94 326.53 153.95
  Z
  M 184.93 153.36
  A 2.57 2.57 0.0 0 0 182.36 150.79
  A 2.57 2.57 0.0 0 0 179.79 153.36
  A 2.57 2.57 0.0 0 0 182.36 155.93
  A 2.57 2.57 0.0 0 0 184.93 153.36
  Z
  M 207.94 160.07
  A 7.00 7.00 0.0 0 0 200.94 153.07
  A 7.00 7.00 0.0 0 0 193.94 160.07
  A 7.00 7.00 0.0 0 0 200.94 167.07
  A 7.00 7.00 0.0 0 0 207.94 160.07
  Z
  M 224.7235 161.8449
  A 0.26 0.26 0.0 0 0 224.4649 161.5835
  L 215.4850 161.5365
  A 0.26 0.26 0.0 0 0 215.2237 161.7952
  L 215.1965 166.9951
  A 0.26 0.26 0.0 0 0 215.4551 167.2565
  L 224.4350 167.3035
  A 0.26 0.26 0.0 0 0 224.6963 167.0448
  L 224.7235 161.8449
  Z
  M 283.9256 162.0510
  A 0.43 0.43 0.0 0 0 283.5001 161.6165
  L 274.6406 161.5238
  A 0.43 0.43 0.0 0 0 274.2061 161.9492
  L 274.1544 166.8890
  A 0.43 0.43 0.0 0 0 274.5799 167.3235
  L 283.4394 167.4162
  A 0.43 0.43 0.0 0 0 283.8739 166.9908
  L 283.9256 162.0510
  Z
  M 156.22 177.49
  C 142.81 172.66 138.33 190.00 146.49 190.00
  Q 171.15 189.99 195.82 189.97
  C 205.86 189.96 198.73 171.08 186.06 177.81
  A 0.62 0.61 77.7 0 1 185.16 177.23
  C 186.21 156.99 156.24 156.38 156.71 177.14
  Q 156.72 177.67 156.22 177.49
  Z
  M 320.1689 175.1522
  A 2.65 2.37 100.9 0 0 322.9972 172.9982
  A 2.65 2.37 100.9 0 0 321.1711 169.9478
  A 2.65 2.37 100.9 0 0 318.3428 172.1018
  A 2.65 2.37 100.9 0 0 320.1689 175.1522
  Z
  M 312.5260 175.2874
  A 0.58 0.58 0.0 0 0 311.9450 174.7084
  L 298.6850 174.7316
  A 0.58 0.58 0.0 0 0 298.1060 175.3126
  L 298.1140 179.9126
  A 0.58 0.58 0.0 0 0 298.6950 180.4916
  L 311.9550 180.4684
  A 0.58 0.58 0.0 0 0 312.5340 179.8874
  L 312.5260 175.2874
  Z
  M 224.6163 176.8918
  A 0.57 0.57 0.0 0 0 224.0453 176.3228
  L 215.7453 176.3372
  A 0.57 0.57 0.0 0 0 215.1763 176.9082
  L 215.1837 181.1682
  A 0.57 0.57 0.0 0 0 215.7547 181.7372
  L 224.0547 181.7228
  A 0.57 0.57 0.0 0 0 224.6237 181.1518
  L 224.6163 176.8918
  Z
  M 283.8825 176.8433
  A 0.56 0.56 0.0 0 0 283.3206 176.2853
  L 274.8606 176.3148
  A 0.56 0.56 0.0 0 0 274.3026 176.8767
  L 274.3175 181.1367
  A 0.56 0.56 0.0 0 0 274.8794 181.6947
  L 283.3394 181.6652
  A 0.56 0.56 0.0 0 0 283.8974 181.1033
  L 283.8825 176.8433
  Z
  M 358.33 190.81
  Q 355.15 174.27 339.69 177.01
  C 331.98 178.39 328.16 184.95 328.53 192.54
  A 0.41 0.41 0.0 0 1 327.93 192.92
  C 321.12 189.37 313.44 194.44 313.73 201.86
  C 313.82 204.23 315.27 206.46 317.75 206.46
  Q 344.63 206.45 371.56 206.47
  Q 374.26 206.48 375.58 205.22
  Q 377.79 203.11 376.97 199.73
  C 375.14 192.12 366.64 186.57 358.90 191.07
  Q 358.43 191.35 358.33 190.81
  Z
  M 130.52 184.21
  A 2.56 2.56 0.0 0 0 127.96 181.65
  A 2.56 2.56 0.0 0 0 125.40 184.21
  A 2.56 2.56 0.0 0 0 127.96 186.77
  A 2.56 2.56 0.0 0 0 130.52 184.21
  Z
  M 291.71 196.57
  Q 289.83 201.32 293.61 204.62
  Q 294.61 205.54 296.02 205.83
  C 301.96 207.47 306.72 201.77 304.01 196.20
  Q 302.40 192.15 297.75 192.44
  Q 293.65 192.70 291.71 196.57
  Z
  M 279.43 194.52
  Q 278.93 195.40 279.45 196.40
  A 2.25 2.25 0.0 0 0 282.45 197.38
  Q 284.37 196.43 283.50 193.96
  C 282.55 192.14 279.88 192.44 279.43 194.52
  Z
  M 218.99 195.21
  A 2.38 2.38 0.0 0 0 216.61 192.83
  A 2.38 2.38 0.0 0 0 214.23 195.21
  A 2.38 2.38 0.0 0 0 216.61 197.59
  A 2.38 2.38 0.0 0 0 218.99 195.21
  Z
  M 218.7395 209.2130
  A 2.49 2.23 96.7 0 0 221.2448 207.0002
  A 2.49 2.23 96.7 0 0 219.3205 204.2670
  A 2.49 2.23 96.7 0 0 216.8152 206.4798
  A 2.49 2.23 96.7 0 0 218.7395 209.2130
  Z
  M 280.9964 209.3453
  A 2.48 2.19 99.6 0 0 283.5693 207.2652
  A 2.48 2.19 99.6 0 0 281.8236 204.4547
  A 2.48 2.19 99.6 0 0 279.2507 206.5348
  A 2.48 2.19 99.6 0 0 280.9964 209.3453
  Z"
/>
<circle fill="#ffdacd" cx="198.71" cy="111.11" r="4.14"/>
<circle fill="#ffdacd" cx="299.77" cy="111.03" r="4.18"/>
<path fill="#ffdacd" d="
  M 186.76 119.21
  C 194.74 119.33 191.68 126.24 189.15 129.92
  Q 188.85 130.35 188.34 130.25
  C 178.68 128.26 170.86 130.52 162.14 134.45
  C 155.07 137.63 148.92 144.15 144.36 150.28
  C 142.85 152.31 141.30 155.27 139.65 157.74
  Q 139.33 158.23 138.75 158.35
  L 130.23 159.99
  Q 127.62 160.49 128.86 158.15
  C 132.11 152.01 135.49 145.29 139.99 140.58
  C 152.82 127.16 168.34 118.94 186.76 119.21
  Z"
/>
<path fill="#ffdacd" d="
  M 330.08 122.06
  Q 330.75 122.32 331.18 122.70
  A 0.54 0.54 0.0 0 1 330.77 123.64
  Q 319.83 122.51 309.86 127.05
  A 2.20 2.20 0.0 0 1 306.82 125.63
  C 303.70 114.15 325.72 120.38 330.08 122.06
  Z"
/>
<ellipse fill="#ffdacd" cx="0.00" cy="0.00" transform="translate(368.43,128.24) rotate(97.2)" rx="4.49" ry="4.13"/>
<ellipse fill="#ffdacd" cx="0.00" cy="0.00" transform="translate(130.33,128.26) rotate(75.5)" rx="4.38" ry="4.26"/>
<path fill="#ffdacd" d="
  M 257.90 162.98
  L 257.87 168.94
  Q 257.86 169.99 256.81 169.96
  L 253.90 169.87
  A 0.83 0.83 0.0 0 1 253.09 169.04
  L 253.04 161.57
  Q 253.04 160.99 252.59 160.64
  L 250.07 158.67
  Q 249.55 158.26 249.02 158.66
  L 246.26 160.72
  Q 245.89 161.00 245.89 161.46
  L 245.85 168.95
  A 0.81 0.80 86.8 0 1 245.14 169.75
  L 242.21 170.08
  A 1.42 1.41 -3.3 0 1 240.64 168.69
  L 240.61 163.47
  Q 240.61 162.98 240.27 162.62
  Q 238.89 161.15 239.72 159.06
  A 0.59 0.54 87.5 0 1 239.93 158.81
  L 249.12 152.98
  Q 249.45 152.77 249.78 152.97
  L 259.30 158.77
  A 0.74 0.72 -86.2 0 1 259.58 159.10
  Q 260.59 161.57 258.38 162.31
  Q 257.91 162.48 257.90 162.98
  Z"
/>
<circle fill="#aa520e" cx="200.94" cy="160.07" r="7.00"/>
<ellipse fill="#ffdacd" cx="0.00" cy="0.00" transform="translate(336.26,157.43) rotate(-8.2)" rx="3.69" ry="3.36"/>
<path fill="#aa520e" d="
  M 304.01 196.20
  Q 297.82 197.25 291.71 196.57
  Q 293.65 192.70 297.75 192.44
  Q 302.40 192.15 304.01 196.20
  Z"
/>
<path fill="#aa520e" d="
  M 283.50 193.96
  Q 281.74 193.15 279.43 194.52
  C 279.88 192.44 282.55 192.14 283.50 193.96
  Z"
/>
<circle fill="#ffdacd" cx="121.31" cy="202.79" r="3.86"/>
<path fill="#aa520e" d="
  M 293.61 204.62
  Q 295.33 204.12 296.02 205.83
  Q 294.61 205.54 293.61 204.62
  Z"
/>
<path fill="#ffdacd" d="
  M 403.60 285.53
  A 11.22 11.22 0.0 0 1 392.38 296.75
  L 106.38 296.75
  A 11.22 11.22 0.0 0 1 95.16 285.53
  L 95.16 237.47
  A 11.22 11.22 0.0 0 1 106.38 226.25
  L 392.38 226.25
  A 11.22 11.22 0.0 0 1 403.60 237.47
  L 403.60 285.53
  Z
  M 241.99 271.39
  L 252.77 271.32
  A 0.78 0.76 -11.5 0 1 253.48 271.78
  Q 255.07 275.47 256.23 279.32
  C 257.38 283.19 263.56 282.28 262.07 276.60
  Q 257.72 260.08 251.33 244.20
  C 250.38 241.84 248.51 240.62 246.14 241.77
  C 243.40 243.11 241.06 251.81 240.18 254.73
  C 237.72 262.90 235.60 268.77 232.88 276.80
  C 232.16 278.93 232.62 280.66 234.91 281.35
  C 239.98 282.88 240.31 274.90 241.37 271.82
  Q 241.53 271.39 241.99 271.39
  Z
  M 352.22 258.74
  C 355.48 261.08 359.11 268.20 361.41 271.63
  A 3.39 3.39 0.0 0 0 367.02 271.65
  L 375.15 259.70
  A 1.60 1.48 -3.0 0 1 375.49 259.35
  Q 377.60 257.85 377.55 260.01
  Q 377.34 269.35 377.46 278.70
  C 377.48 280.91 378.28 281.18 380.24 281.38
  C 383.51 281.70 384.26 280.59 384.28 277.45
  Q 384.36 261.73 384.36 246.01
  C 384.36 241.48 380.03 239.91 377.36 243.75
  Q 371.00 252.87 364.91 262.26
  Q 364.63 262.69 364.28 262.32
  Q 362.19 260.05 361.55 259.00
  Q 356.84 251.25 351.58 243.86
  C 348.37 239.37 344.28 241.87 344.19 246.66
  Q 343.96 258.64 344.06 277.50
  C 344.09 281.84 348.39 283.15 350.91 280.02
  A 1.28 1.28 0.0 0 0 351.19 279.22
  L 351.23 259.24
  Q 351.23 258.03 352.22 258.74
  Z
  M 287.00 258.25
  L 274.99 258.25
  Q 274.42 258.25 274.41 257.67
  Q 274.31 252.44 274.44 247.21
  Q 274.50 244.79 274.12 243.84
  C 272.84 240.56 267.43 241.63 267.39 244.75
  Q 267.15 262.30 267.47 279.53
  A 1.80 1.79 7.0 0 0 268.81 281.24
  C 273.39 282.43 274.53 280.69 274.49 276.43
  Q 274.43 270.97 274.50 265.42
  Q 274.50 264.90 275.03 264.90
  L 287.23 264.87
  A 0.52 0.51 89.5 0 1 287.75 265.39
  Q 287.77 271.88 287.78 278.39
  C 287.79 283.11 295.14 282.56 295.10 277.49
  Q 294.95 262.00 294.82 246.51
  C 294.77 240.49 287.46 240.31 287.66 245.50
  Q 287.77 248.24 287.64 257.62
  Q 287.63 258.25 287.00 258.25
  Z
  M 128.96 249.38
  L 135.95 249.30
  Q 136.54 249.30 136.98 248.91
  Q 139.56 246.64 137.98 243.62
  A 3.16 3.16 0.0 0 0 135.15 241.93
  Q 126.24 242.02 116.62 241.94
  C 113.42 241.91 110.35 245.18 112.73 247.99
  C 114.43 250.01 118.96 249.30 121.45 249.26
  Q 121.93 249.26 121.93 249.73
  L 121.86 279.21
  A 1.40 1.39 24.9 0 0 122.19 280.11
  Q 124.10 282.35 127.03 281.30
  A 2.47 2.45 -10.1 0 0 128.67 278.97
  L 128.56 249.79
  Q 128.56 249.39 128.96 249.38
  Z
  M 151.48 249.31
  Q 158.70 249.26 165.91 249.28
  C 171.26 249.30 170.54 241.99 164.21 241.98
  Q 155.57 241.96 147.66 241.96
  A 3.81 3.81 0.0 0 0 143.86 245.78
  L 143.94 278.70
  A 2.62 2.61 0.4 0 0 146.51 281.30
  Q 155.44 281.44 164.95 281.34
  C 166.61 281.33 167.99 281.54 168.94 279.97
  C 170.91 276.73 168.22 274.27 164.99 274.36
  Q 159.81 274.51 151.32 274.35
  A 0.59 0.58 -89.0 0 1 150.75 273.75
  L 150.87 265.75
  Q 150.88 265.16 151.47 265.14
  C 155.19 265.04 161.96 266.68 163.10 261.76
  Q 163.21 261.30 163.01 260.88
  C 161.29 257.20 154.67 258.55 151.29 258.48
  Q 150.84 258.47 150.85 258.02
  L 151.03 249.76
  Q 151.04 249.31 151.48 249.31
  Z
  M 182.08 266.66
  L 185.16 266.63
  Q 185.68 266.62 185.93 267.07
  Q 189.41 273.35 192.88 279.66
  C 194.76 283.08 199.87 281.43 198.90 278.01
  Q 197.44 272.88 193.47 266.17
  Q 193.20 265.72 193.66 265.47
  Q 199.25 262.39 199.55 256.49
  Q 200.16 244.62 189.50 242.30
  C 186.34 241.62 181.98 241.89 178.53 241.94
  A 3.33 3.33 0.0 0 0 175.25 245.22
  Q 174.99 261.29 175.01 276.73
  Q 175.02 279.22 175.61 280.19
  C 177.02 282.51 181.55 282.00 181.51 278.49
  Q 181.45 272.86 181.54 267.19
  Q 181.55 266.66 182.08 266.66
  Z
  M 212.56 266.59
  L 215.33 266.48
  A 0.66 0.65 -13.0 0 1 215.94 266.85
  L 222.51 280.50
  A 0.94 0.90 2.6 0 0 222.93 280.94
  C 226.78 282.95 230.39 280.69 228.25 276.12
  Q 225.91 271.11 223.14 266.12
  Q 222.87 265.65 223.37 265.42
  C 234.26 260.59 231.94 246.73 221.89 242.93
  C 218.25 241.56 213.01 241.80 208.86 241.98
  A 4.03 4.03 0.0 0 0 205.01 246.00
  L 204.91 279.55
  A 1.27 1.24 20.9 0 0 205.35 280.50
  Q 206.47 281.48 208.49 281.48
  C 211.42 281.49 212.03 280.39 211.99 277.58
  Q 211.90 272.35 212.03 267.12
  Q 212.05 266.61 212.56 266.59
  Z
  M 321.5255 281.0694
  A 19.59 19.17 84.8 0 0 338.8411 259.8226
  A 19.59 19.17 84.8 0 0 317.9745 242.0506
  A 19.59 19.17 84.8 0 0 300.6589 263.2974
  A 19.59 19.17 84.8 0 0 321.5255 281.0694
  Z"
/>
<path fill="#ffdacd" d="
  M 181.57 249.75
  A 0.55 0.55 0.0 0 1 182.13 249.21
  L 187.37 249.25
  A 5.55 5.30 0.5 0 1 192.87 254.60
  L 192.87 254.84
  A 5.55 5.30 0.5 0 1 187.27 260.09
  L 182.03 260.05
  A 0.55 0.55 0.0 0 1 181.49 259.49
  L 181.57 249.75
  Z"
/>
<path fill="#ffdacd" d="
  M 211.98 250.09
  A 0.75 0.75 0.0 0 1 212.72 249.33
  L 218.02 249.24
  A 5.18 5.07 89.1 0 1 223.17 254.34
  L 223.17 254.76
  A 5.18 5.07 89.1 0 1 218.18 260.02
  L 212.89 260.10
  A 0.75 0.75 0.0 0 1 212.12 259.37
  L 211.98 250.09
  Z"
/>
<circle fill="#ffdacd" cx="319.70" cy="261.51" r="12.00"/>
<path fill="#ffdacd" d="
  M 244.16 263.00
  L 246.66 256.76
  A 0.93 0.93 0.0 0 1 248.38 256.76
  L 250.88 263.00
  A 0.93 0.93 0.0 0 1 250.02 264.28
  L 245.02 264.28
  A 0.93 0.93 0.0 0 1 244.16 263.00
  Z"
/>
<path fill="#ffdacd" d="
  M 153.76 311.03
  Q 153.68 314.42 153.69 317.83
  C 153.71 320.85 152.49 321.31 149.76 321.18
  Q 147.11 321.06 147.02 319.00
  Q 146.85 315.04 146.72 311.08
  Q 146.71 310.61 146.23 310.61
  Q 125.33 310.66 104.45 310.62
  C 97.83 310.61 98.48 303.68 104.12 303.66
  Q 167.44 303.38 230.75 303.71
  A 0.65 0.65 0.0 0 1 231.40 304.36
  Q 231.39 308.79 231.49 313.29
  C 231.59 317.90 227.02 318.34 224.12 316.23
  A 0.96 0.93 -72.6 0 1 223.73 315.46
  L 223.72 311.03
  Q 223.72 310.60 223.28 310.60
  L 167.19 310.58
  Q 166.70 310.58 166.68 311.08
  C 166.57 314.42 168.31 321.25 163.01 321.08
  Q 159.68 320.96 159.86 317.74
  Q 160.05 314.42 160.06 311.08
  Q 160.06 310.53 159.51 310.53
  L 154.26 310.54
  Q 153.77 310.54 153.76 311.03
  Z"
/>
<path fill="#ffdacd" d="
  M 338.99 311.00
  L 339.02 319.31
  A 1.10 1.08 -18.4 0 1 338.57 320.19
  Q 335.50 322.44 332.64 320.07
  A 1.08 1.06 -71.0 0 1 332.24 319.23
  L 332.22 311.00
  Q 332.21 310.54 331.75 310.54
  L 275.78 310.60
  Q 273.97 310.61 274.22 312.39
  Q 274.68 315.67 272.98 316.54
  Q 269.75 318.21 267.55 316.14
  Q 267.11 315.72 267.09 315.12
  L 266.74 305.20
  A 1.48 1.48 0.0 0 1 268.22 303.66
  Q 331.32 303.49 395.00 303.54
  C 399.98 303.54 400.36 310.56 394.25 310.58
  Q 373.37 310.66 352.49 310.63
  Q 351.88 310.63 351.88 311.23
  L 351.86 319.48
  Q 351.86 319.91 351.52 320.17
  Q 348.65 322.36 345.64 320.42
  A 1.15 1.12 17.3 0 1 345.13 319.48
  L 345.13 310.95
  Q 345.13 310.51 344.70 310.51
  L 339.50 310.50
  Q 338.99 310.50 338.99 311.00
  Z"
/>
<path fill="#ffdacd" d="
  M 245.11 303.77
  A 0.71 0.71 0.0 0 1 245.82 304.48
  L 245.80 314.69
  A 2.36 2.32 -89.9 0 1 243.48 317.04
  L 240.76 317.04
  A 2.36 2.32 -89.9 0 1 238.44 314.67
  L 238.46 304.46
  A 0.71 0.71 0.0 0 1 239.17 303.75
  L 245.11 303.77
  Z"
/>
<rect fill="#ffdacd" x="-3.78" y="-6.60" transform="translate(256.50,310.28) rotate(-0.2)" width="7.56" height="13.20" rx="1.36"/>
<ellipse fill="#ffdacd" cx="0.00" cy="0.00" transform="translate(104.51,320.78) rotate(-0.2)" rx="3.41" ry="3.13"/>
<ellipse fill="#ffdacd" cx="0.00" cy="0.00" transform="translate(197.10,323.27) rotate(-20.9)" rx="5.88" ry="5.68"/>
<circle fill="#ffdacd" cx="301.00" cy="323.27" r="5.88"/>
<ellipse fill="#ffdacd" cx="0.00" cy="0.00" transform="translate(393.87,320.77) rotate(0.1)" rx="3.38" ry="3.13"/>
<ellipse fill="#ffdacd" cx="0.00" cy="0.00" transform="translate(117.58,323.38) rotate(80.9)" rx="4.45" ry="4.21"/>
<circle fill="#ffdacd" cx="381.18" cy="323.34" r="4.47"/>
<path fill="#ffdacd" d="
  M 239.29 389.23
  Q 239.23 394.87 239.25 400.50
  C 239.26 403.69 234.44 404.09 232.95 401.53
  C 231.71 399.39 232.31 392.01 232.24 389.27
  Q 232.23 388.76 231.72 388.76
  C 228.90 388.72 225.63 389.06 223.14 388.28
  Q 215.29 385.85 215.39 376.75
  Q 215.61 355.75 215.41 334.75
  C 215.35 329.39 217.26 322.49 223.75 322.41
  Q 248.87 322.11 274.00 322.22
  Q 276.99 322.24 279.38 324.43
  C 283.71 328.40 282.85 334.68 282.86 339.88
  Q 282.91 358.05 282.72 376.22
  Q 282.67 381.49 281.43 383.82
  C 278.65 389.05 272.62 388.87 266.61 388.76
  Q 266.06 388.75 266.05 389.29
  Q 265.92 394.22 266.01 398.98
  Q 266.07 402.72 262.92 403.20
  C 257.79 403.97 259.27 392.03 259.28 389.23
  Q 259.28 388.69 258.75 388.70
  L 253.27 388.74
  Q 252.80 388.75 252.82 389.22
  C 252.92 391.42 253.52 396.34 251.75 397.93
  C 250.20 399.31 247.66 398.91 246.42 397.25
  C 245.22 395.66 245.71 391.26 245.74 389.26
  Q 245.75 388.76 245.24 388.76
  L 239.77 388.75
  Q 239.30 388.75 239.29 389.23
  Z
  M 272.4979 339.0707
  A 6.25 6.25 0.0 0 0 266.2589 332.8098
  L 232.1389 332.7503
  A 6.25 6.25 0.0 0 0 225.8780 338.9893
  L 225.8221 371.0493
  A 6.25 6.25 0.0 0 0 232.0611 377.3102
  L 266.1811 377.3697
  A 6.25 6.25 0.0 0 0 272.4420 371.1307
  L 272.4979 339.0707
  Z"
/>
<path fill="#ffdacd" d="
  M 179.2242 363.2007
  A 7.74 7.74 0.0 0 1 171.4707 370.9272
  L 140.2307 370.8727
  A 7.74 7.74 0.0 0 1 132.5042 363.1192
  L 132.5558 333.5593
  A 7.74 7.74 0.0 0 1 140.3093 325.8328
  L 171.5493 325.8873
  A 7.74 7.74 0.0 0 1 179.2758 333.6408
  L 179.2242 363.2007
  Z
  M 170.8733 339.2923
  A 4.24 4.24 0.0 0 0 166.6481 335.0375
  L 145.1883 334.9626
  A 4.24 4.24 0.0 0 0 140.9335 339.1878
  L 140.8667 358.3277
  A 4.24 4.24 0.0 0 0 145.0919 362.5825
  L 166.5517 362.6574
  A 4.24 4.24 0.0 0 0 170.8065 358.4322
  L 170.8733 339.2923
  Z"
/>
<path fill="#ffdacd" d="
  M 366.1940 363.3008
  A 7.70 7.70 0.0 0 1 358.4806 370.9873
  L 327.1406 370.9326
  A 7.70 7.70 0.0 0 1 319.4541 363.2192
  L 319.5060 333.4792
  A 7.70 7.70 0.0 0 1 327.2194 325.7927
  L 358.5594 325.8474
  A 7.70 7.70 0.0 0 1 366.2459 333.5608
  L 366.1940 363.3008
  Z
  M 357.87 339.36
  A 4.35 4.35 0.0 0 0 353.52 335.01
  L 332.30 335.01
  A 4.35 4.35 0.0 0 0 327.95 339.36
  L 327.95 358.32
  A 4.35 4.35 0.0 0 0 332.30 362.67
  L 353.52 362.67
  A 4.35 4.35 0.0 0 0 357.87 358.32
  L 357.87 339.36
  Z"
/>
<rect fill="#ffdacd" x="289.29" y="337.17" width="24.44" height="6.48" rx="3.04"/>
<rect fill="#ffdacd" x="-5.35" y="-3.30" transform="translate(377.69,340.44) rotate(0.7)" width="10.70" height="6.60" rx="3.08"/>
<rect fill="#ffdacd" x="-5.48" y="-3.19" transform="translate(120.99,340.45) rotate(0.7)" width="10.96" height="6.38" rx="3.00"/>
<rect fill="#ffdacd" x="-12.07" y="-3.21" transform="translate(197.18,340.45) rotate(0.1)" width="24.14" height="6.42" rx="3.00"/>
<path fill="#ffdacd" d="
  M 248.79 348.82
  L 243.95 352.01
  Q 243.51 352.30 243.51 352.83
  L 243.57 364.31
  A 1.01 1.00 -13.4 0 1 243.01 365.21
  Q 240.13 366.65 237.15 365.31
  A 1.10 1.08 12.2 0 1 236.50 364.32
  L 236.46 356.43
  Q 236.45 355.85 235.91 355.64
  L 234.66 355.17
  Q 234.23 355.01 234.23 354.55
  L 234.21 350.33
  Q 234.21 349.75 234.68 349.42
  L 248.51 339.81
  Q 249.04 339.44 249.58 339.79
  L 263.74 348.97
  Q 264.19 349.26 264.23 349.79
  C 264.35 351.47 264.84 355.37 262.44 355.67
  Q 261.93 355.74 261.93 356.24
  L 261.96 364.20
  A 1.76 1.76 0.0 0 1 260.04 365.95
  L 255.82 365.56
  A 0.93 0.92 2.1 0 1 254.98 364.67
  L 254.68 352.76
  A 0.99 0.99 0.0 0 0 254.27 352.00
  L 249.73 348.84
  Q 249.27 348.51 248.79 348.82
  Z"
/>
<path fill="#ffdacd" d="
  M 147.78 349.52
  L 147.21 349.43
  Q 146.64 349.34 146.61 348.77
  Q 146.52 346.61 148.44 345.46
  Q 151.95 343.36 155.25 340.98
  Q 155.64 340.70 156.02 340.97
  C 158.06 342.42 164.23 345.36 165.22 347.99
  Q 165.42 348.52 164.95 348.83
  L 164.14 349.36
  Q 163.67 349.66 163.65 350.21
  L 163.49 354.45
  Q 163.46 355.11 162.80 355.14
  L 159.83 355.27
  Q 159.11 355.30 159.11 354.58
  L 159.12 348.93
  Q 159.12 348.50 158.79 348.23
  L 156.40 346.35
  Q 155.99 346.03 155.57 346.34
  L 153.17 348.14
  A 1.05 1.03 71.7 0 0 152.76 348.97
  L 152.77 354.85
  Q 152.77 355.46 152.15 355.46
  L 149.06 355.47
  A 0.68 0.68 0.0 0 1 148.38 354.81
  L 148.23 350.03
  Q 148.22 349.59 147.78 349.52
  Z"
/>
<path fill="#ffdacd" d="
  M 335.09 349.51
  Q 334.91 349.43 334.40 349.52
  A 1.67 1.18 -58.0 0 1 334.24 346.70
  L 342.40 341.25
  Q 342.92 340.90 343.45 341.23
  L 351.91 346.61
  A 1.41 1.40 52.5 0 1 351.58 349.14
  L 351.02 349.31
  Q 350.52 349.47 350.52 349.99
  L 350.49 354.50
  Q 350.49 355.25 349.75 355.25
  L 346.81 355.25
  Q 346.11 355.26 346.12 354.56
  L 346.14 348.60
  A 2.43 2.43 0.0 0 0 341.84 347.05
  Q 341.14 347.90 340.44 348.31
  A 1.32 1.31 -15.0 0 0 339.78 349.45
  L 339.78 354.76
  Q 339.78 355.30 339.24 355.29
  L 336.10 355.22
  A 0.62 0.62 0.0 0 1 335.50 354.60
  L 335.49 350.00
  Q 335.49 349.69 335.09 349.51
  Z"
/>
<ellipse fill="#ffdacd" cx="0.00" cy="0.00" transform="translate(106.95,350.03) rotate(82.5)" rx="5.30" ry="5.16"/>
<circle fill="#ffdacd" cx="392.00" cy="350.05" r="5.27"/>
<rect fill="#ffdacd" x="-4.89" y="-3.28" transform="translate(121.75,353.14) rotate(-0.2)" width="9.78" height="6.56" rx="3.07"/>
<rect fill="#ffdacd" x="-4.76" y="-3.34" transform="translate(377.14,353.21) rotate(1.0)" width="9.52" height="6.68" rx="3.11"/>
<rect fill="#ffdacd" x="-12.17" y="-3.25" transform="translate(197.16,353.74) rotate(0.1)" width="24.34" height="6.50" rx="3.01"/>
<rect fill="#ffdacd" x="289.17" y="350.51" width="24.72" height="6.48" rx="3.11"/>
<circle fill="#ffdacd" cx="118.32" cy="366.00" r="5.10"/>
<circle fill="#ffdacd" cx="380.93" cy="366.02" r="5.17"/>
<rect fill="#ffdacd" x="-12.09" y="-3.16" transform="translate(197.13,366.75) rotate(-0.1)" width="24.18" height="6.32" rx="3.05"/>
<rect fill="#ffdacd" x="289.26" y="363.57" width="24.50" height="6.40" rx="3.06"/>
<path fill="#ffdacd" d="
  M 332.24 384.91
  Q 332.25 382.15 332.33 379.37
  C 332.48 374.93 338.64 375.25 338.72 379.07
  Q 338.79 382.47 338.74 385.86
  A 1.18 1.16 -67.2 0 0 339.08 386.71
  C 345.64 393.14 338.34 403.49 330.37 399.01
  C 324.96 395.96 325.75 387.79 331.79 385.56
  Q 332.24 385.39 332.24 384.91
  Z"
/>
<path fill="#ffdacd" d="
  M 152.08 376.48
  A 1.47 1.47 0.0 0 1 153.55 377.96
  L 153.54 385.31
  A 3.24 3.08 -89.9 0 1 150.45 388.54
  L 150.03 388.54
  A 3.24 3.08 -89.9 0 1 146.96 385.29
  L 146.97 377.94
  A 1.47 1.47 0.0 0 1 148.44 376.48
  L 152.08 376.48
  Z"
/>
<path fill="#ffdacd" d="
  M 167.26 385.47
  Q 171.36 387.13 171.95 391.25
  C 172.92 398.05 164.82 402.86 159.54 398.16
  C 155.82 394.86 156.28 389.65 159.83 386.35
  Q 160.20 386.02 160.21 385.53
  C 160.29 382.38 158.64 375.58 164.26 376.52
  C 167.77 377.10 166.75 382.38 166.80 384.80
  A 0.74 0.73 -79.8 0 0 167.26 385.47
  Z"
/>
<circle fill="#ffdacd" cx="192.84" cy="379.89" r="3.31"/>
<ellipse fill="#ffdacd" cx="0.00" cy="0.00" transform="translate(305.27,379.85) rotate(93.1)" rx="3.40" ry="3.17"/>
<path fill="#ffdacd" d="
  M 350.35 376.49
  A 1.44 1.44 0.0 0 1 351.80 377.92
  L 351.84 385.65
  A 3.08 2.95 -0.3 0 1 348.77 388.62
  L 348.47 388.62
  A 3.08 2.95 -0.3 0 1 345.38 385.69
  L 345.34 377.96
  A 1.44 1.44 0.0 0 1 346.77 376.51
  L 350.35 376.49
  Z"
/>
<circle fill="#ffdacd" cx="128.70" cy="386.05" r="5.66"/>
<ellipse fill="#ffdacd" cx="0.00" cy="0.00" transform="translate(369.81,386.11) rotate(73.4)" rx="5.68" ry="5.56"/>
<circle fill="#ffdacd" cx="292.87" cy="393.05" r="6.41"/>
<circle fill="#ffdacd" cx="205.24" cy="393.17" r="6.32"/>
<circle fill="#ffdacd" cx="183.11" cy="391.07" r="3.80"/>
<circle fill="#ffdacd" cx="315.48" cy="391.20" r="3.73"/>
<ellipse fill="#ffdacd" cx="249.15" cy="412.37" rx="8.16" ry="7.85"/>
<circle fill="#ffdacd" cx="215.42" cy="410.48" r="4.34"/>
<circle fill="#ffdacd" cx="282.64" cy="410.46" r="4.27"/>
</svg>
