<?xml version="1.0" encoding="UTF-8" standalone="no"?>
<!DOCTYPE svg PUBLIC "-//W3C//DTD SVG 1.1//EN" "http://www.w3.org/Graphics/SVG/1.1/DTD/svg11.dtd">
<svg xmlns="http://www.w3.org/2000/svg" version="1.1" viewBox="0.00 0.00 500.00 500.00">
<rect fill="#002532" x="-7.82" y="-3.00" transform="translate(229.76,92.28) rotate(-17.6)" width="15.64" height="6.00" rx="2.82"/>
<rect fill="#002532" x="-7.60" y="-3.02" transform="translate(268.54,92.27) rotate(18.9)" width="15.20" height="6.04" rx="2.73"/>
<rect fill="#002532" x="-6.37" y="-3.34" transform="translate(211.84,99.94) rotate(-29.4)" width="12.74" height="6.68" rx="3.17"/>
<rect fill="#002532" x="-6.41" y="-3.31" transform="translate(286.57,99.97) rotate(29.5)" width="12.82" height="6.62" rx="3.15"/>
<ellipse fill="#002532" cx="0.00" cy="0.00" transform="translate(183.84,101.72) rotate(84.1)" rx="4.94" ry="4.69"/>
<ellipse fill="#002532" cx="0.00" cy="0.00" transform="translate(314.62,101.65) rotate(86.0)" rx="4.89" ry="4.70"/>
<path fill="#002532" d="
  M 232.32 189.41
  L 232.23 218.52
  A 0.51 0.50 -90.0 0 1 231.73 219.03
  L 213.18 219.02
  Q 212.60 219.02 212.16 218.67
  Q 210.96 217.71 209.48 216.02
  Q 198.87 203.90 195.81 200.29
  Q 195.57 200.00 195.19 200.00
  L 131.22 200.00
  Q 130.70 200.00 130.47 199.53
  C 127.98 194.47 122.65 191.65 117.28 194.09
  C 111.96 196.52 110.39 204.52 114.16 208.97
  C 118.80 214.45 126.58 213.20 130.24 207.08
  Q 130.49 206.66 130.98 206.66
  L 192.25 206.67
  A 1.44 1.44 0.0 0 1 193.34 207.17
  L 202.82 218.38
  Q 203.32 218.97 202.54 218.97
  L 107.73 219.03
  A 1.17 1.16 70.2 0 1 106.83 218.60
  C 101.48 212.02 102.43 199.87 105.15 192.64
  C 111.09 176.86 125.89 165.47 143.04 165.95
  A 1.47 1.47 0.0 0 0 144.43 165.07
  C 150.15 152.01 160.58 140.61 174.99 137.22
  Q 183.78 135.15 191.64 138.72
  A 2.41 2.40 -62.2 0 0 194.70 137.77
  C 195.56 136.36 196.34 135.01 196.91 133.31
  C 199.49 125.59 206.53 118.24 213.07 113.61
  C 216.32 111.30 219.52 108.60 222.98 106.94
  C 242.64 97.47 264.42 98.68 282.39 111.44
  Q 287.23 114.87 288.76 116.22
  Q 298.44 124.73 302.94 136.72
  C 304.83 141.76 308.29 137.00 310.31 135.86
  Q 323.19 128.56 337.74 132.00
  C 349.20 134.71 359.47 141.62 364.91 152.15
  C 366.68 155.58 368.99 158.65 369.42 162.63
  A 0.91 0.91 0.0 0 1 368.25 163.60
  C 364.82 162.53 355.26 161.42 355.30 167.42
  A 2.51 2.51 0.0 0 0 357.94 169.91
  Q 372.96 169.12 384.97 179.04
  Q 387.25 180.92 391.12 187.61
  Q 398.58 200.53 393.95 215.17
  Q 393.24 217.41 391.86 218.73
  Q 391.55 219.03 391.11 219.03
  L 267.01 219.01
  Q 266.51 219.01 266.51 218.51
  L 266.52 189.48
  A 0.56 0.56 0.0 0 0 265.97 188.92
  L 261.02 188.88
  Q 260.42 188.88 260.42 189.48
  L 260.39 218.41
  Q 260.39 219.02 259.77 219.02
  L 253.16 219.02
  Q 252.55 219.02 252.55 218.41
  L 252.57 189.28
  Q 252.57 188.75 252.03 188.75
  L 247.06 188.75
  Q 246.37 188.75 246.37 189.44
  L 246.41 218.57
  Q 246.41 219.05 245.93 219.05
  L 239.28 219.05
  Q 238.76 219.05 238.76 218.53
  L 238.55 189.46
  Q 238.55 188.86 237.96 188.86
  L 232.90 188.83
  Q 232.32 188.83 232.32 189.41
  Z
  M 243.20 120.52
  A 0.62 0.62 0.0 0 0 243.80 119.94
  L 244.04 115.39
  A 0.62 0.62 0.0 0 0 243.42 114.74
  L 238.13 114.75
  A 0.62 0.62 0.0 0 0 237.51 115.36
  L 237.46 120.02
  A 0.62 0.62 0.0 0 0 238.09 120.64
  L 243.20 120.52
  Z
  M 265.2286 115.2414
  A 0.51 0.51 0.0 0 0 264.7204 114.7297
  L 259.2005 114.7104
  A 0.51 0.51 0.0 0 0 258.6887 115.2186
  L 258.6714 120.1786
  A 0.51 0.51 0.0 0 0 259.1796 120.6903
  L 264.6995 120.7096
  A 0.51 0.51 0.0 0 0 265.2113 120.2014
  L 265.2286 115.2414
  Z
  M 218.5064 131.1094
  A 2.56 2.10 91.2 0 0 220.6595 128.5940
  A 2.56 2.10 91.2 0 0 218.6136 125.9906
  A 2.56 2.10 91.2 0 0 216.4605 128.5060
  A 2.56 2.10 91.2 0 0 218.5064 131.1094
  Z
  M 280.3066 131.0596
  A 2.43 2.07 88.9 0 0 282.3296 128.5903
  A 2.43 2.07 88.9 0 0 280.2134 126.2004
  A 2.43 2.07 88.9 0 0 278.1904 128.6697
  A 2.43 2.07 88.9 0 0 280.3066 131.0596
  Z
  M 238.7410 130.8812
  A 0.58 0.58 0.0 0 0 238.1631 130.2991
  L 232.9431 130.2809
  A 0.58 0.58 0.0 0 0 232.3611 130.8589
  L 232.3390 137.1988
  A 0.58 0.58 0.0 0 0 232.9169 137.7809
  L 238.1369 137.7991
  A 0.58 0.58 0.0 0 0 238.7189 137.2211
  L 238.7410 130.8812
  Z
  M 252.5488 130.8393
  A 0.55 0.55 0.0 0 0 251.9969 130.2912
  L 246.9569 130.3088
  A 0.55 0.55 0.0 0 0 246.4088 130.8607
  L 246.4312 137.2607
  A 0.55 0.55 0.0 0 0 246.9831 137.8088
  L 252.0231 137.7912
  A 0.55 0.55 0.0 0 0 252.5712 137.2393
  L 252.5488 130.8393
  Z
  M 266.4786 130.7195
  A 0.49 0.49 0.0 0 0 265.9869 130.2312
  L 260.9269 130.2489
  A 0.49 0.49 0.0 0 0 260.4386 130.7406
  L 260.4614 137.2605
  A 0.49 0.49 0.0 0 0 260.9531 137.7488
  L 266.0131 137.7311
  A 0.49 0.49 0.0 0 0 266.5014 137.2394
  L 266.4786 130.7195
  Z
  M 294.36 139.12
  A 2.41 2.41 0.0 0 0 291.95 136.71
  A 2.41 2.41 0.0 0 0 289.54 139.12
  A 2.41 2.41 0.0 0 0 291.95 141.53
  A 2.41 2.41 0.0 0 0 294.36 139.12
  Z
  M 207.93 139.24
  A 2.42 2.42 0.0 0 0 205.51 136.82
  A 2.42 2.42 0.0 0 0 203.09 139.24
  A 2.42 2.42 0.0 0 0 205.51 141.66
  A 2.42 2.42 0.0 0 0 207.93 139.24
  Z
  M 320.9499 147.3801
  A 2.53 2.19 101.4 0 0 323.5968 145.3329
  A 2.53 2.19 101.4 0 0 321.9501 142.4199
  A 2.53 2.19 101.4 0 0 319.3032 144.4671
  A 2.53 2.19 101.4 0 0 320.9499 147.3801
  Z
  M 265.01 151.33
  A 4.39 4.39 0.0 0 0 260.62 146.94
  L 237.92 146.94
  A 4.39 4.39 0.0 0 0 233.53 151.33
  L 233.53 174.57
  A 4.39 4.39 0.0 0 0 237.92 178.96
  L 260.62 178.96
  A 4.39 4.39 0.0 0 0 265.01 174.57
  L 265.01 151.33
  Z
  M 224.7594 147.9618
  A 0.52 0.52 0.0 0 0 224.2439 147.4373
  L 215.7242 147.3629
  A 0.52 0.52 0.0 0 0 215.1997 147.8784
  L 215.1606 152.3582
  A 0.52 0.52 0.0 0 0 215.6761 152.8827
  L 224.1958 152.9571
  A 0.52 0.52 0.0 0 0 224.7203 152.4416
  L 224.7594 147.9618
  Z
  M 283.9240 147.8185
  A 0.52 0.52 0.0 0 0 283.4049 147.2976
  L 274.7049 147.2824
  A 0.52 0.52 0.0 0 0 274.1840 147.8015
  L 274.1760 152.4015
  A 0.52 0.52 0.0 0 0 274.6951 152.9224
  L 283.3951 152.9376
  A 0.52 0.52 0.0 0 0 283.9160 152.4185
  L 283.9240 147.8185
  Z
  M 326.60 154.03
  Q 310.26 154.32 293.94 154.23
  C 288.58 154.20 288.45 160.11 293.74 160.15
  Q 310.13 160.25 326.49 160.01
  Q 326.98 160.01 327.20 160.46
  C 330.37 167.22 338.93 169.73 343.46 162.97
  C 350.88 151.90 334.96 141.08 327.35 153.60
  Q 327.09 154.02 326.60 154.03
  Z
  M 184.87 153.36
  A 2.51 2.51 0.0 0 0 182.36 150.85
  A 2.51 2.51 0.0 0 0 179.85 153.36
  A 2.51 2.51 0.0 0 0 182.36 155.87
  A 2.51 2.51 0.0 0 0 184.87 153.36
  Z
  M 208.01 160.05
  A 7.05 7.05 0.0 0 0 200.96 153.00
  A 7.05 7.05 0.0 0 0 193.91 160.05
  A 7.05 7.05 0.0 0 0 200.96 167.10
  A 7.05 7.05 0.0 0 0 208.01 160.05
  Z
  M 224.6623 162.1246
  A 0.40 0.40 0.0 0 0 224.2644 161.7226
  L 215.6646 161.6775
  A 0.40 0.40 0.0 0 0 215.2625 162.0754
  L 215.2377 166.8154
  A 0.40 0.40 0.0 0 0 215.6356 167.2174
  L 224.2354 167.2625
  A 0.40 0.40 0.0 0 0 224.6375 166.8646
  L 224.6623 162.1246
  Z
  M 283.8651 162.1004
  A 0.40 0.40 0.0 0 0 283.4693 161.6962
  L 274.6698 161.6041
  A 0.40 0.40 0.0 0 0 274.2656 161.9999
  L 274.2149 166.8396
  A 0.40 0.40 0.0 0 0 274.6107 167.2438
  L 283.4102 167.3359
  A 0.40 0.40 0.0 0 0 283.8144 166.9401
  L 283.8651 162.1004
  Z
  M 156.28 177.69
  Q 144.47 173.89 142.36 185.12
  Q 141.89 187.66 143.79 189.05
  Q 144.96 189.90 147.39 189.91
  Q 171.68 189.97 195.99 189.89
  C 198.11 189.88 200.55 188.67 200.47 186.47
  Q 200.11 176.34 190.46 176.59
  C 188.91 176.62 187.42 177.44 185.80 177.80
  Q 185.19 177.93 185.19 177.31
  C 185.16 160.77 164.69 155.42 157.80 170.70
  C 156.86 172.78 156.97 174.99 156.84 177.30
  A 0.43 0.43 0.0 0 1 156.28 177.69
  Z
  M 320.1779 175.0579
  A 2.56 2.30 100.4 0 0 322.9022 172.9552
  A 2.56 2.30 100.4 0 0 321.1021 170.0221
  A 2.56 2.30 100.4 0 0 318.3778 172.1248
  A 2.56 2.30 100.4 0 0 320.1779 175.0579
  Z
  M 312.4865 175.5775
  A 0.84 0.84 0.0 0 0 311.6450 174.7390
  L 299.0450 174.7610
  A 0.84 0.84 0.0 0 0 298.2065 175.6025
  L 298.2135 179.6225
  A 0.84 0.84 0.0 0 0 299.0550 180.4610
  L 311.6550 180.4390
  A 0.84 0.84 0.0 0 0 312.4935 179.5975
  L 312.4865 175.5775
  Z
  M 283.7762 176.8218
  A 0.49 0.49 0.0 0 0 283.2854 176.3327
  L 274.8654 176.3474
  A 0.49 0.49 0.0 0 0 274.3763 176.8382
  L 274.3838 181.1382
  A 0.49 0.49 0.0 0 0 274.8746 181.6273
  L 283.2946 181.6126
  A 0.49 0.49 0.0 0 0 283.7837 181.1218
  L 283.7762 176.8218
  Z
  M 224.5464 176.9619
  A 0.57 0.57 0.0 0 0 223.9754 176.3929
  L 215.8154 176.4071
  A 0.57 0.57 0.0 0 0 215.2464 176.9781
  L 215.2536 181.0981
  A 0.57 0.57 0.0 0 0 215.8246 181.6671
  L 223.9846 181.6529
  A 0.57 0.57 0.0 0 0 224.5536 181.0819
  L 224.5464 176.9619
  Z
  M 327.97 192.87
  C 315.07 187.44 308.21 206.37 319.10 206.36
  Q 345.07 206.33 371.07 206.42
  C 375.30 206.44 377.86 204.15 376.90 199.87
  C 375.14 192.11 366.64 186.71 358.85 191.17
  Q 358.30 191.48 358.20 190.86
  Q 356.23 177.99 345.22 176.79
  C 335.10 175.69 328.19 182.15 328.60 192.43
  Q 328.62 193.14 327.97 192.87
  Z
  M 130.47 184.22
  A 2.52 2.52 0.0 0 0 127.95 181.70
  A 2.52 2.52 0.0 0 0 125.43 184.22
  A 2.52 2.52 0.0 0 0 127.95 186.74
  A 2.52 2.52 0.0 0 0 130.47 184.22
  Z
  M 295.1431 205.7122
  A 7.03 6.92 113.8 0 0 304.3115 202.0725
  A 7.03 6.92 113.8 0 0 300.8169 192.8478
  A 7.03 6.92 113.8 0 0 291.6485 196.4875
  A 7.03 6.92 113.8 0 0 295.1431 205.7122
  Z
  M 283.79 195.15
  A 2.30 2.30 0.0 0 0 281.49 192.85
  A 2.30 2.30 0.0 0 0 279.19 195.15
  A 2.30 2.30 0.0 0 0 281.49 197.45
  A 2.30 2.30 0.0 0 0 283.79 195.15
  Z
  M 218.92 195.21
  A 2.31 2.31 0.0 0 0 216.61 192.90
  A 2.31 2.31 0.0 0 0 214.30 195.21
  A 2.31 2.31 0.0 0 0 216.61 197.52
  A 2.31 2.31 0.0 0 0 218.92 195.21
  Z
  M 218.7847 209.1978
  A 2.47 2.16 95.7 0 0 221.1793 206.9545
  A 2.47 2.16 95.7 0 0 219.2753 204.2822
  A 2.47 2.16 95.7 0 0 216.8807 206.5255
  A 2.47 2.16 95.7 0 0 218.7847 209.1978
  Z
  M 281.0520 209.3151
  A 2.44 2.14 98.2 0 0 283.5181 207.2052
  A 2.44 2.14 98.2 0 0 281.7480 204.4849
  A 2.44 2.14 98.2 0 0 279.2819 206.5948
  A 2.44 2.14 98.2 0 0 281.0520 209.3151
  Z"
/>
<circle fill="#002532" cx="198.71" cy="111.11" r="4.23"/>
<circle fill="#002532" cx="299.77" cy="111.02" r="4.26"/>
<path fill="#002532" d="
  M 313.44 125.68
  C 312.19 126.10 310.63 127.02 309.12 127.53
  Q 308.65 127.68 308.28 127.35
  C 304.20 123.72 307.04 118.92 311.99 118.82
  Q 322.07 118.64 331.27 122.66
  A 0.47 0.46 36.5 0 1 331.39 123.44
  Q 331.17 123.63 330.77 123.59
  Q 321.83 122.83 313.44 125.68
  Z"
/>
<path fill="#002532" d="
  M 128.46 159.11
  C 131.87 151.66 136.74 142.61 142.99 137.23
  C 148.77 132.25 155.87 126.95 162.67 123.94
  C 167.72 121.71 202.45 111.03 189.04 130.04
  Q 188.77 130.43 188.31 130.34
  C 177.33 128.12 164.22 131.64 155.42 138.68
  C 148.29 144.39 143.83 150.81 139.69 157.95
  A 0.70 0.70 0.0 0 1 139.22 158.28
  L 129.37 160.26
  A 0.82 0.82 0.0 0 1 128.46 159.11
  Z"
/>
<ellipse fill="#002532" cx="0.00" cy="0.00" transform="translate(368.41,128.24) rotate(95.1)" rx="4.55" ry="4.21"/>
<ellipse fill="#002532" cx="0.00" cy="0.00" transform="translate(130.34,128.27) rotate(65.8)" rx="4.47" ry="4.35"/>
<path fill="#002532" d="
  M 258.02 163.02
  L 257.97 169.28
  A 0.71 0.70 -0.0 0 1 257.26 169.98
  L 254.05 169.99
  A 1.05 1.05 0.0 0 1 253.00 168.94
  L 253.00 161.56
  Q 253.00 161.01 252.56 160.67
  L 250.07 158.75
  Q 249.55 158.35 249.02 158.74
  L 246.39 160.67
  Q 245.95 160.99 245.95 161.53
  L 245.98 168.94
  A 0.91 0.91 0.0 0 1 245.13 169.85
  L 241.44 170.10
  Q 240.66 170.15 240.65 169.37
  L 240.55 163.66
  Q 240.54 163.06 240.15 162.61
  Q 238.86 161.07 239.74 158.95
  A 0.58 0.57 -4.1 0 1 239.95 158.71
  L 249.06 152.94
  Q 249.44 152.70 249.83 152.94
  L 259.04 158.55
  Q 259.60 158.89 259.74 159.53
  Q 260.24 161.92 258.54 162.34
  Q 258.02 162.48 258.02 163.02
  Z"
/>
<circle fill="#55aef0" cx="200.96" cy="160.05" r="7.05"/>
<ellipse fill="#002532" cx="0.00" cy="0.00" transform="translate(336.27,157.44) rotate(-7.3)" rx="3.75" ry="3.43"/>
<ellipse fill="#55aef0" cx="0.00" cy="0.00" transform="translate(297.98,199.28) rotate(113.8)" rx="7.03" ry="6.92"/>
<ellipse fill="#002532" cx="0.00" cy="0.00" transform="translate(121.32,202.80) rotate(77.6)" rx="4.00" ry="3.81"/>
<path fill="#002532" d="
  M 403.66 285.53
  A 11.24 11.24 0.0 0 1 392.42 296.77
  L 106.34 296.77
  A 11.24 11.24 0.0 0 1 95.10 285.53
  L 95.10 237.45
  A 11.24 11.24 0.0 0 1 106.34 226.21
  L 392.42 226.21
  A 11.24 11.24 0.0 0 1 403.66 237.45
  L 403.66 285.53
  Z
  M 242.01 271.32
  L 252.89 271.27
  A 0.72 0.72 0.0 0 1 253.55 271.70
  Q 254.93 274.89 255.71 278.26
  C 256.76 282.82 263.53 283.00 262.00 276.91
  C 260.95 272.72 260.05 268.53 258.61 264.47
  Q 255.27 255.07 251.91 245.69
  C 251.24 243.84 250.59 241.79 248.54 241.53
  Q 245.49 241.15 244.47 243.22
  Q 242.29 247.62 240.33 254.30
  Q 238.23 261.44 236.75 265.53
  Q 234.68 271.27 232.78 277.06
  C 231.73 280.26 235.11 282.59 237.56 281.23
  C 239.79 280.00 240.55 274.37 241.20 271.95
  Q 241.37 271.33 242.01 271.32
  Z
  M 365.41 261.59
  Q 364.33 263.22 363.27 261.57
  Q 357.05 251.88 351.28 243.50
  C 348.77 239.86 344.43 241.87 344.33 246.00
  Q 343.96 261.75 344.07 277.50
  C 344.11 282.93 351.05 282.81 351.09 278.49
  Q 351.16 268.65 351.11 259.19
  A 0.82 0.82 0.0 0 1 352.58 258.68
  Q 356.90 264.28 360.51 270.23
  C 363.07 274.45 365.59 273.50 368.08 269.90
  Q 371.83 264.48 375.57 259.06
  Q 375.80 258.73 376.07 258.63
  Q 376.32 258.54 376.59 258.52
  A 0.74 0.73 88.5 0 1 377.35 259.25
  L 377.46 279.51
  A 1.20 1.19 21.9 0 0 377.81 280.33
  C 379.94 282.43 384.16 282.01 384.18 278.26
  Q 384.26 262.16 384.25 246.06
  C 384.25 243.57 383.12 241.53 380.45 241.74
  C 378.64 241.88 377.17 243.89 376.27 245.24
  Q 370.48 253.96 365.41 261.59
  Z
  M 129.03 249.28
  C 131.34 249.24 135.14 249.70 136.87 248.78
  C 140.10 247.07 138.42 241.98 134.75 242.00
  Q 125.47 242.04 116.18 242.05
  C 112.49 242.05 110.41 246.65 113.56 248.65
  C 115.32 249.77 119.13 249.20 121.44 249.23
  Q 121.98 249.24 121.99 249.79
  Q 122.05 263.73 121.96 277.72
  C 121.93 283.18 128.63 283.06 128.63 277.25
  Q 128.62 263.54 128.50 249.82
  Q 128.50 249.29 129.03 249.28
  Z
  M 151.45 249.29
  Q 157.97 249.16 164.49 249.28
  C 171.71 249.41 170.38 241.95 164.75 241.98
  Q 155.65 242.02 147.48 242.04
  A 3.50 3.50 0.0 0 0 143.99 245.54
  L 144.01 278.48
  A 2.79 2.78 0.4 0 0 146.75 281.25
  Q 156.14 281.41 166.03 281.24
  C 168.30 281.20 169.60 279.98 169.46 277.73
  C 169.29 274.98 167.19 274.47 164.70 274.46
  Q 158.03 274.42 151.26 274.45
  Q 150.74 274.45 150.75 273.94
  L 150.79 265.54
  Q 150.79 264.98 151.35 264.99
  Q 155.54 265.06 159.75 264.98
  C 162.54 264.93 164.47 260.77 161.40 259.06
  C 159.34 257.91 153.80 258.49 151.30 258.53
  Q 150.78 258.53 150.79 258.01
  L 150.96 249.78
  Q 150.97 249.30 151.45 249.29
  Z
  M 193.69 265.34
  C 202.65 260.45 200.78 247.13 192.37 243.30
  C 188.49 241.54 182.89 241.87 178.50 242.07
  A 3.39 3.39 0.0 0 0 175.27 245.42
  Q 175.11 261.60 175.08 277.94
  C 175.08 279.58 175.74 280.98 177.32 281.39
  C 180.67 282.28 181.57 279.98 181.52 277.12
  Q 181.44 272.21 181.53 267.37
  Q 181.54 266.92 181.97 266.77
  C 184.70 265.86 185.95 266.71 187.24 269.20
  Q 189.92 274.40 192.81 279.49
  C 195.02 283.39 200.24 281.41 198.46 276.88
  Q 196.28 271.33 193.47 266.07
  Q 193.22 265.60 193.69 265.34
  Z
  M 223.22 265.32
  C 234.71 261.11 231.39 246.43 221.48 242.89
  C 217.91 241.62 213.15 241.98 209.16 242.03
  A 4.18 4.18 0.0 0 0 205.04 246.21
  Q 205.03 262.09 205.00 278.38
  C 204.99 282.17 209.49 282.30 211.49 280.44
  A 1.32 1.31 -21.6 0 0 211.91 279.48
  L 211.96 267.17
  Q 211.96 266.56 212.58 266.54
  L 215.47 266.48
  A 0.81 0.80 -11.7 0 1 216.23 266.97
  Q 218.88 273.42 222.22 279.54
  C 223.76 282.36 228.74 282.25 229.00 278.98
  C 229.20 276.40 224.36 268.47 222.98 265.97
  A 0.46 0.45 65.6 0 1 223.22 265.32
  Z
  M 287.77 265.40
  Q 287.87 271.45 287.78 277.49
  C 287.70 283.14 294.78 283.01 294.80 277.37
  Q 294.86 261.80 294.76 246.23
  C 294.74 242.33 290.11 240.10 288.26 243.26
  C 286.95 245.52 287.75 254.69 287.71 257.76
  Q 287.70 258.25 287.21 258.25
  L 274.79 258.25
  A 0.44 0.44 0.0 0 1 274.35 257.82
  Q 274.30 252.24 274.36 246.62
  C 274.39 243.37 272.82 240.55 269.18 242.40
  A 3.17 3.16 -13.2 0 0 267.44 245.19
  Q 267.27 261.51 267.25 278.50
  Q 267.24 280.59 268.97 281.19
  C 273.57 282.78 274.51 280.05 274.45 276.21
  Q 274.37 270.84 274.40 265.43
  Q 274.40 264.80 275.03 264.81
  L 287.20 264.84
  Q 287.76 264.84 287.77 265.40
  Z
  M 321.7226 280.9901
  A 19.52 19.11 84.2 0 0 338.7622 259.6388
  A 19.52 19.11 84.2 0 0 317.7774 242.1499
  A 19.52 19.11 84.2 0 0 300.7378 263.5012
  A 19.52 19.11 84.2 0 0 321.7226 280.9901
  Z"
/>
<path fill="#002532" d="
  M 181.48 249.90
  A 0.76 0.76 0.0 0 1 182.24 249.14
  L 187.26 249.13
  A 5.66 5.39 -0.1 0 1 192.93 254.51
  L 192.93 254.77
  A 5.66 5.39 -0.1 0 1 187.28 260.17
  L 182.26 260.18
  A 0.76 0.76 0.0 0 1 181.50 259.42
  L 181.48 249.90
  Z"
/>
<path fill="#002532" d="
  M 211.92 250.26
  A 0.96 0.96 0.0 0 1 212.88 249.30
  L 218.06 249.28
  A 5.14 5.11 -0.2 0 1 223.22 254.37
  L 223.22 254.97
  A 5.14 5.11 -0.2 0 1 218.10 260.10
  L 212.92 260.12
  A 0.96 0.96 0.0 0 1 211.96 259.16
  L 211.92 250.26
  Z"
/>
<circle fill="#002532" cx="319.69" cy="261.50" r="12.05"/>
<path fill="#002532" d="
  M 244.07 263.04
  L 246.66 256.62
  A 0.93 0.93 0.0 0 1 248.39 256.62
  L 250.96 263.06
  A 0.93 0.93 0.0 0 1 250.09 264.33
  L 244.93 264.32
  A 0.93 0.93 0.0 0 1 244.07 263.04
  Z"
/>
<path fill="#002532" d="
  M 146.23 310.77
  Q 113.44 310.60 104.25 310.74
  C 97.99 310.83 98.03 303.61 104.75 303.60
  Q 167.75 303.43 230.58 303.65
  A 0.86 0.86 0.0 0 1 231.43 304.51
  L 231.50 315.24
  A 1.18 1.15 -22.4 0 1 231.12 316.12
  C 229.53 317.58 225.93 317.97 224.22 316.12
  C 223.28 315.10 223.68 312.73 223.65 311.27
  Q 223.63 310.70 223.06 310.70
  L 167.42 310.67
  Q 166.84 310.67 166.79 311.24
  C 166.47 314.64 168.44 320.87 163.26 321.16
  C 161.01 321.28 159.90 320.36 159.97 318.00
  Q 160.08 314.51 159.96 311.06
  Q 159.95 310.60 159.49 310.61
  L 154.42 310.65
  Q 153.83 310.65 153.80 311.24
  C 153.70 314.00 155.16 321.52 150.80 321.34
  C 148.94 321.26 146.85 321.39 146.80 319.07
  Q 146.72 315.18 146.75 311.29
  Q 146.75 310.77 146.23 310.77
  Z"
/>
<path fill="#002532" d="
  M 352.00 311.26
  L 351.99 319.22
  Q 351.99 319.76 351.60 320.13
  C 349.93 321.76 345.32 322.31 345.23 318.74
  Q 345.13 314.88 344.95 310.99
  Q 344.93 310.56 344.50 310.55
  L 339.50 310.52
  A 0.47 0.46 90.0 0 0 339.03 311.00
  L 339.08 319.22
  A 1.04 1.02 67.9 0 1 338.78 319.95
  C 337.09 321.70 332.39 322.10 332.27 318.74
  Q 332.13 314.85 332.04 311.02
  A 0.39 0.38 89.2 0 0 331.66 310.64
  L 274.96 310.72
  Q 274.40 310.72 274.32 311.27
  C 273.85 314.68 275.28 317.84 269.73 317.16
  C 267.71 316.91 267.02 316.28 266.96 314.14
  Q 266.80 309.47 266.72 304.94
  A 1.30 1.30 0.0 0 1 268.02 303.61
  Q 332.07 303.49 395.75 303.51
  C 399.69 303.51 400.47 310.72 393.91 310.71
  Q 373.22 310.69 352.51 310.75
  Q 352.00 310.75 352.00 311.26
  Z"
/>
<path fill="#002532" d="
  M 245.21 303.75
  A 0.72 0.72 0.0 0 1 245.93 304.47
  L 245.91 314.67
  A 2.48 2.48 0.0 0 1 243.43 317.14
  L 240.85 317.14
  A 2.48 2.48 0.0 0 1 238.37 314.65
  L 238.39 304.45
  A 0.72 0.72 0.0 0 1 239.11 303.73
  L 245.21 303.75
  Z"
/>
<rect fill="#002532" x="-3.87" y="-6.66" transform="translate(256.49,310.31) rotate(-0.1)" width="7.74" height="13.32" rx="1.54"/>
<ellipse fill="#002532" cx="0.00" cy="0.00" transform="translate(104.48,320.79) rotate(0.4)" rx="3.45" ry="3.20"/>
<circle fill="#002532" cx="197.11" cy="323.31" r="5.85"/>
<circle fill="#002532" cx="300.99" cy="323.29" r="5.94"/>
<ellipse fill="#002532" cx="0.00" cy="0.00" transform="translate(393.87,320.77) rotate(-1.4)" rx="3.44" ry="3.22"/>
<ellipse fill="#002532" cx="0.00" cy="0.00" transform="translate(117.59,323.39) rotate(83.4)" rx="4.51" ry="4.29"/>
<circle fill="#002532" cx="381.16" cy="323.33" r="4.53"/>
<path fill="#002532" d="
  M 252.94 389.29
  L 252.89 395.92
  Q 252.88 396.34 252.66 396.70
  Q 251.20 399.07 249.68 398.92
  C 244.27 398.38 245.79 392.92 245.67 389.25
  Q 245.66 388.81 245.22 388.81
  L 239.98 388.80
  Q 239.34 388.80 239.34 389.44
  Q 239.31 394.33 239.28 399.15
  C 239.25 405.18 232.42 404.42 232.31 399.28
  Q 232.20 394.30 232.25 389.52
  A 0.81 0.81 0.0 0 0 231.35 388.70
  C 221.50 389.77 215.23 386.46 215.35 375.88
  Q 215.59 355.16 215.36 334.44
  C 215.29 328.40 217.68 322.17 224.78 322.14
  Q 247.45 322.04 270.13 322.15
  C 280.16 322.20 282.93 326.13 282.95 335.55
  Q 282.99 355.10 282.88 374.67
  C 282.84 381.30 282.25 386.32 275.60 388.33
  C 273.04 389.10 269.61 388.87 266.62 388.88
  Q 266.06 388.88 266.06 389.44
  Q 266.06 394.44 266.00 399.30
  C 265.97 402.02 264.09 404.14 261.38 403.15
  C 258.25 402.00 259.25 392.11 259.24 389.24
  Q 259.24 388.75 258.75 388.75
  L 253.46 388.77
  A 0.52 0.52 0.0 0 0 252.94 389.29
  Z
  M 272.4280 339.0506
  A 6.14 6.14 0.0 0 0 266.2987 332.8998
  L 232.1388 332.8402
  A 6.14 6.14 0.0 0 0 225.9880 338.9695
  L 225.9320 371.0694
  A 6.14 6.14 0.0 0 0 232.0613 377.2202
  L 266.2212 377.2798
  A 6.14 6.14 0.0 0 0 272.3720 371.1505
  L 272.4280 339.0506
  Z"
/>
<path fill="#002532" d="
  M 179.3158 363.1691
  A 7.81 7.81 0.0 0 1 171.5195 370.9928
  L 140.3395 371.0472
  A 7.81 7.81 0.0 0 1 132.5159 363.2508
  L 132.4642 333.6309
  A 7.81 7.81 0.0 0 1 140.2605 325.8072
  L 171.4405 325.7528
  A 7.81 7.81 0.0 0 1 179.2641 333.5492
  L 179.3158 363.1691
  Z
  M 170.7934 339.2520
  A 4.13 4.13 0.0 0 0 166.6779 335.1076
  L 145.1780 335.0326
  A 4.13 4.13 0.0 0 0 141.0336 339.1481
  L 140.9666 358.3480
  A 4.13 4.13 0.0 0 0 145.0821 362.4924
  L 166.5820 362.5674
  A 4.13 4.13 0.0 0 0 170.7264 358.4519
  L 170.7934 339.2520
  Z"
/>
<path fill="#002532" d="
  M 366.28 363.27
  A 7.77 7.77 0.0 0 1 358.51 371.04
  L 327.17 371.04
  A 7.77 7.77 0.0 0 1 319.40 363.27
  L 319.40 333.53
  A 7.77 7.77 0.0 0 1 327.17 325.76
  L 358.51 325.76
  A 7.77 7.77 0.0 0 1 366.28 333.53
  L 366.28 363.27
  Z
  M 357.8265 339.3760
  A 4.28 4.28 0.0 0 0 353.5540 335.0886
  L 332.3140 335.0515
  A 4.28 4.28 0.0 0 0 328.0266 339.3240
  L 327.9935 358.2840
  A 4.28 4.28 0.0 0 0 332.2660 362.5714
  L 353.5060 362.6085
  A 4.28 4.28 0.0 0 0 357.7934 358.3360
  L 357.8265 339.3760
  Z"
/>
<rect fill="#002532" x="-5.55" y="-3.28" transform="translate(120.95,340.44) rotate(0.4)" width="11.10" height="6.56" rx="3.08"/>
<rect fill="#002532" x="-12.14" y="-3.30" transform="translate(197.15,340.44) rotate(0.1)" width="24.28" height="6.60" rx="3.16"/>
<rect fill="#002532" x="289.26" y="337.07" width="24.50" height="6.66" rx="3.11"/>
<rect fill="#002532" x="-5.43" y="-3.38" transform="translate(377.70,340.40) rotate(0.6)" width="10.86" height="6.76" rx="3.13"/>
<path fill="#002532" d="
  M 235.89 355.72
  L 234.67 355.21
  A 0.86 0.85 11.3 0 1 234.15 354.44
  L 234.03 350.34
  Q 234.02 349.78 234.48 349.47
  L 248.50 339.74
  Q 249.04 339.37 249.59 339.72
  L 263.86 348.98
  Q 264.36 349.31 264.33 349.90
  L 264.10 354.72
  Q 264.07 355.28 263.53 355.41
  L 262.49 355.66
  Q 262.01 355.77 262.01 356.26
  L 262.01 363.99
  A 2.00 2.00 0.0 0 1 260.29 365.97
  Q 257.69 366.32 255.35 365.26
  A 0.83 0.82 12.3 0 1 254.86 364.51
  L 254.67 352.94
  A 1.20 1.17 17.7 0 0 254.17 352.00
  L 249.66 348.79
  Q 249.30 348.54 248.93 348.78
  L 243.97 352.04
  Q 243.57 352.30 243.57 352.78
  L 243.61 364.30
  A 0.94 0.93 -17.4 0 1 243.20 365.07
  Q 240.16 367.10 236.96 365.20
  A 1.10 1.09 -75.2 0 1 236.43 364.28
  L 236.34 356.38
  Q 236.33 355.90 235.89 355.72
  Z"
/>
<path fill="#002532" d="
  M 155.54 346.41
  L 153.25 348.20
  A 1.30 1.28 -19.9 0 0 152.77 349.20
  L 152.81 354.84
  A 0.65 0.64 -0.4 0 1 152.16 355.49
  L 149.06 355.48
  A 0.76 0.75 -0.4 0 1 148.31 354.75
  L 148.21 350.31
  Q 148.19 349.65 147.55 349.49
  L 147.17 349.39
  Q 146.65 349.26 146.59 348.72
  C 146.47 347.47 146.90 346.53 148.01 345.80
  Q 151.66 343.38 155.28 340.93
  Q 155.68 340.66 156.07 340.93
  C 158.42 342.59 164.39 345.39 165.34 347.98
  A 0.76 0.76 0.0 0 1 165.04 348.87
  L 164.20 349.43
  Q 163.76 349.72 163.74 350.25
  L 163.59 354.57
  A 0.67 0.67 0.0 0 1 162.93 355.22
  L 159.63 355.25
  Q 159.00 355.26 159.00 354.63
  L 159.03 349.03
  A 1.10 1.10 0.0 0 0 158.63 348.18
  L 156.45 346.42
  Q 156.00 346.05 155.54 346.41
  Z"
/>
<path fill="#002532" d="
  M 350.52 350.01
  L 350.53 354.60
  Q 350.53 355.24 349.90 355.25
  L 346.67 355.29
  Q 346.04 355.30 346.04 354.67
  L 346.07 348.45
  A 2.29 2.29 0.0 0 0 342.11 346.88
  Q 341.17 347.88 340.29 348.42
  A 0.95 0.95 0.0 0 0 339.84 349.23
  L 339.85 354.74
  Q 339.85 355.33 339.26 355.32
  L 336.11 355.23
  A 0.66 0.66 0.0 0 1 335.47 354.57
  L 335.47 349.99
  Q 335.47 349.50 334.99 349.49
  L 334.51 349.48
  Q 333.89 349.46 333.81 348.85
  C 333.67 347.89 333.79 347.05 334.65 346.43
  Q 338.50 343.64 342.53 341.14
  Q 342.97 340.86 343.41 341.14
  L 351.80 346.47
  A 1.52 1.51 -37.9 0 1 351.46 349.19
  L 351.01 349.33
  Q 350.52 349.49 350.52 350.01
  Z"
/>
<ellipse fill="#002532" cx="0.00" cy="0.00" transform="translate(106.94,350.01) rotate(81.7)" rx="5.36" ry="5.22"/>
<circle fill="#002532" cx="391.99" cy="350.03" r="5.34"/>
<rect fill="#002532" x="-4.94" y="-3.34" transform="translate(121.75,353.12) rotate(0.2)" width="9.88" height="6.68" rx="3.12"/>
<rect fill="#002532" x="-4.82" y="-3.40" transform="translate(377.12,353.21) rotate(0.7)" width="9.64" height="6.80" rx="3.17"/>
<rect fill="#002532" x="-12.20" y="-3.28" transform="translate(197.12,353.76) rotate(0.1)" width="24.40" height="6.56" rx="2.93"/>
<rect fill="#002532" x="-12.44" y="-3.28" transform="translate(301.53,353.76) rotate(0.1)" width="24.88" height="6.56" rx="3.17"/>
<circle fill="#002532" cx="118.31" cy="366.00" r="5.18"/>
<circle fill="#002532" cx="380.94" cy="366.02" r="5.25"/>
<rect fill="#002532" x="-12.15" y="-3.26" transform="translate(197.13,366.76) rotate(-0.1)" width="24.30" height="6.52" rx="3.16"/>
<rect fill="#002532" x="289.17" y="363.49" width="24.64" height="6.58" rx="3.17"/>
<path fill="#002532" d="
  M 167.29 385.39
  C 172.85 387.34 173.51 394.73 169.48 398.22
  C 162.08 404.61 152.05 394.35 159.83 386.22
  A 1.22 1.20 68.1 0 0 160.17 385.40
  C 160.21 382.25 158.59 375.71 164.14 376.42
  C 167.87 376.90 166.78 381.99 166.79 384.69
  Q 166.80 385.21 167.29 385.39
  Z"
/>
<path fill="#002532" d="
  M 332.11 384.91
  C 332.49 381.71 330.52 375.85 336.00 376.25
  C 340.16 376.56 338.73 382.96 338.83 385.85
  A 1.28 1.26 -69.0 0 0 339.20 386.70
  C 345.84 393.50 337.82 404.00 329.93 398.80
  C 324.95 395.51 325.79 387.75 331.60 385.56
  Q 332.05 385.39 332.11 384.91
  Z"
/>
<path fill="#002532" d="
  M 152.25 376.49
  A 1.38 1.38 0.0 0 1 153.62 377.88
  L 153.59 385.26
  A 3.42 3.20 -89.7 0 1 150.37 388.66
  L 150.07 388.66
  A 3.42 3.20 -89.7 0 1 146.89 385.22
  L 146.92 377.84
  A 1.38 1.38 0.0 0 1 148.31 376.47
  L 152.25 376.49
  Z"
/>
<circle fill="#002532" cx="192.84" cy="379.90" r="3.39"/>
<ellipse fill="#002532" cx="0.00" cy="0.00" transform="translate(305.26,379.87) rotate(90.3)" rx="3.48" ry="3.22"/>
<rect fill="#002532" x="-3.31" y="-6.06" transform="translate(348.64,382.46) rotate(-0.4)" width="6.62" height="12.12" rx="2.27"/>
<circle fill="#002532" cx="128.70" cy="386.06" r="5.74"/>
<circle fill="#002532" cx="369.80" cy="386.11" r="5.69"/>
<circle fill="#002532" cx="292.86" cy="393.04" r="6.48"/>
<circle fill="#002532" cx="205.22" cy="393.17" r="6.40"/>
<circle fill="#002532" cx="183.13" cy="391.09" r="3.87"/>
<circle fill="#002532" cx="315.48" cy="391.19" r="3.80"/>
<ellipse fill="#002532" cx="0.00" cy="0.00" transform="translate(249.13,412.37) rotate(0.4)" rx="8.22" ry="7.92"/>
<circle fill="#002532" cx="215.42" cy="410.48" r="4.43"/>
<circle fill="#002532" cx="282.63" cy="410.49" r="4.35"/>
</svg>
